<svg width="40" height="40" viewBox="0 0 40 40" fill="none" xmlns="http://www.w3.org/2000/svg">
<rect x="4" y="4" width="32" height="32" rx="4" fill="#6AAA64"/>
<path d="M24 18V10H16V16H10V28H30V18H24ZM18 12H22V26H18V12ZM12 18H16V26H12V18ZM28 26H24V20H28V26Z" fill="white"/>
<path d="M38.3838 32.3204L38.6513 32L38.3838 31.6796L37.1853 30.2438L37.3526 28.341L37.3905 27.9107L36.9703 27.8107L35.2137 27.3927L34.2901 25.7544L34.0658 25.3567L33.6494 25.544L32 26.286L30.3506 25.544L29.9347 25.3569L29.7102 25.7539L28.7871 27.3862L27.031 27.799L26.6095 27.8981L26.6474 28.3294L26.8148 30.2386L25.6156 31.6803L25.3492 32.0006L25.6162 32.3204L26.8148 33.7562L26.6474 35.6649L26.6096 36.095L27.0297 36.195L28.7867 36.6131L29.7102 38.2461L29.9353 38.6441L30.3518 38.4555L32.0007 37.7086L33.6494 38.4503L34.0653 38.6374L34.2898 38.2404L35.2133 36.6074L36.9703 36.1893L37.3905 36.0893L37.3526 35.659L37.1853 33.7562L38.3838 32.3204ZM29.6919 32.3992L30.5958 33.3502L30.958 33.7313L31.3204 33.3503L34.1497 30.3762L34.2656 30.4976L30.9582 33.972L29.5762 32.5205L29.6919 32.3992Z" fill="black" stroke="white"/>
</svg>
