<svg width="16" height="16" viewBox="0 0 16 16" fill="none" xmlns="http://www.w3.org/2000/svg">
<path d="M14.3838 8.32042L14.6513 8L14.3838 7.67958L13.1853 6.24382L13.3526 4.34095L13.3905 3.91071L12.9703 3.81073L11.2137 3.39273L10.2901 1.75445L10.0658 1.35668L9.64942 1.54402L8 2.28602L6.35058 1.54402L5.93472 1.35693L5.71023 1.75386L4.78707 3.38621L3.03104 3.79898L2.60953 3.89806L2.64737 4.3294L2.81483 6.23856L1.6156 7.68025L1.34915 8.00057L1.61617 8.32042L2.81478 9.75624L2.64737 11.6649L2.60964 12.095L3.02971 12.195L4.78667 12.6131L5.71023 14.2461L5.93529 14.6441L6.35175 14.4555L8.0007 13.7086L9.64942 14.4503L10.0653 14.6374L10.2898 14.2404L11.2133 12.6074L12.9703 12.1893L13.3905 12.0893L13.3526 11.659L13.1853 9.75619L14.3838 8.32042ZM5.69195 8.39924L6.59576 9.35017L6.95802 9.73132L7.32045 9.35034L10.1497 6.37621L10.2656 6.49761L6.95816 9.97199L5.57625 8.52045L5.69195 8.39924Z" fill="#6AAA64" stroke="white"/>
</svg>
