<svg xmlns="http://www.w3.org/2000/svg" width="59" height="60" viewBox="0 0 59 60" fill="none">
<rect width="59" height="60" fill="none"/>
<path d="M36.5082 23.8662H36.5017V23.8726H36.5082V23.8662Z" fill="#7FA768"/>
<path d="M36.5017 24.8435V47.6301H44.7702C46.0112 47.6301 47.0206 46.6335 47.0206 45.4055V36.1918V24.8949L36.5017 24.8435Z" fill="#6AAA64"/>
<path d="M46.6541 14.9354V22.9596L36.5146 22.9146L36.5596 12.7622H44.4809C45.6768 12.7622 46.6541 13.7395 46.6541 14.9354Z" fill="white"/>
<path d="M35.1515 36.5004V47.6172H24.1375V36.449L35.1515 36.5004Z" fill="#6AAA64"/>
<path d="M35.3058 24.1297L35.2479 35.658L23.7325 35.5938L23.7839 24.0847L35.3058 24.1297Z" fill="#D1B036"/>
<path d="M34.6307 12.7622L34.5857 22.9017L24.4333 22.8632V12.7622H34.6307Z" fill="white"/>
<path d="M23.3274 36.3911V47.6751H14.4417C13.1172 47.6751 12.037 46.5949 12.037 45.2704V36.3911H23.3274Z" fill="#6AAA64"/>
<path d="M22.498 24.8435L22.4466 34.983H12.2749V24.8435H22.498Z" fill="white"/>
<path d="M22.5044 12.7622V22.9146H12.2749V14.9354C12.2749 13.7395 13.2522 12.7622 14.4545 12.7622H22.5044V12.7622Z" fill="white"/>
<path d="M44.513 10.8783H14.4867C12.2234 10.8783 10.3781 12.7172 10.3781 14.9804V45.0068C10.3781 47.27 12.2234 49.1153 14.4867 49.1153H44.513C46.7763 49.1153 48.6152 47.27 48.6152 45.0068V14.9804C48.6152 12.7236 46.7763 10.8783 44.513 10.8783ZM36.5339 23.9176H36.5403V23.924H36.5339V23.9176ZM12.3135 24.8949H22.5366L22.4851 35.0344H12.3135V24.8949ZM22.5366 47.1928H14.4867C13.2843 47.1928 12.307 46.2155 12.307 45.0132V36.9569H22.5366V47.1928ZM22.5366 22.966H12.3135V14.9804C12.3135 13.7845 13.2908 12.8072 14.4931 12.8072H22.543V22.966H22.5366ZM34.605 47.1928H24.4655V36.9119L34.605 36.9633V47.1928ZM34.5536 35.028L24.414 34.9766L24.459 24.837L34.605 24.8756L34.5536 35.028ZM34.6178 22.9531L24.4655 22.9146V12.8072H34.6629L34.6178 22.9531ZM46.6863 45.0132C46.6863 46.2155 45.709 47.1928 44.513 47.1928H36.5339V36.9569H46.6863V45.0132ZM46.6863 35.028H36.4889L36.5339 24.8885L46.6863 24.9335V35.028ZM46.6863 23.011L36.5467 22.966L36.5917 12.8136H44.513C45.709 12.8136 46.6863 13.7909 46.6863 14.9868V23.011Z" fill="black"/>
<circle cx="43" cy="44" r="11" fill="black" stroke="white" stroke-width="2"/>
<circle cx="43" cy="44" r="7" fill="white"/>
<path d="M43 36C38.584 36 35 39.584 35 44C35 48.416 38.584 52 43 52C47.416 52 51 48.416 51 44C51 39.584 47.416 36 43 36ZM43.8 49.6H42.2V48H43.8V49.6ZM45.456 43.4L44.736 44.136C44.16 44.72 43.8 45.2 43.8 46.4H42.2V46C42.2 45.12 42.56 44.32 43.136 43.736L44.128 42.728C44.424 42.44 44.6 42.04 44.6 41.6C44.6 40.72 43.88 40 43 40C42.12 40 41.4 40.72 41.4 41.6H39.8C39.8 39.832 41.232 38.4 43 38.4C44.768 38.4 46.2 39.832 46.2 41.6C46.2 42.304 45.912 42.944 45.456 43.4Z" fill="black"/>
</svg>